<?xml version="1.0" encoding="utf-8"?>
<?xml-stylesheet type="text/xsl" href="rss1.xsl"?>
<rss version="2.0" xmlns:atom="http://www.w3.org/2005/Atom" xmlns:content="http://purl.org/rss/1.0/modules/content/" xmlns:dc="http://purl.org/dc/elements/1.1/" xmlns:media="http://search.yahoo.com/mrss/">
<channel>
 <title>Getty</title>
 <link>http://www.gettyimg.com/</link>
 <atom:link href="http://www.gettyimg.com/" rel="self" type="application/rss+xml" />

 
                <item>
                <title><![CDATA[【Cinema Center】SERIES - K.C. Undercover - Season 2 - 1080p Amazon WEB-DL DD+ 5.1 x264-TrollHD]]></title>
                <link><![CDATA[https://sharemania.us/threads/k-c-undercover-season-2-1080p-amazon-web-dl-dd-5-1-x264-trollhd.234931/]]></link>
                <description><![CDATA[<article>
<blockquote class="messageText SelectQuoteContainer ugc baseHtml">
K.C. Undercover:<img src="https://cdn2.broadcasthe.net/tvdb/banners/graphical/285824-g4.jpg" class="bbCodeImage LbImage" alt="[​IMG]" data-url="https://cdn2.broadcasthe.net/tvdb/banners/graphical/285824-g4.jpg" style=""><br>
<br>
<div class="bbCodeBlock bbCodeQuote">
<aside>
<blockquote class="quoteContainer"><div class="quote"><i><b>Synopsis:</b></i><br>
This live-action spy-comedy series stars Zendaya as K.C. Cooper, a high school math whiz and karate black-belt who learns that her parents are spies when they recruit her to join them in the secret government agency, The Organization. While she now has the latest spy gadgets at her disposal, K.C. has a lot to learn about being a spy, including keeping her new gig a secret from her best friend Marisa. Together, K.C. and her parents, Craig and Kira, and her younger siblings, Ernie and Judy (a humanoid robot), try to balance everyday family life while on undercover missions, near and far, to save the world</div><div class="quoteExpand">Click to expand...</div></blockquote>
</aside>
</div>
<div class="ToggleTriggerAnchor bbCodeSpoilerContainer">
<button type="button" class="button bbCodeSpoilerButton ToggleTrigger Tooltip JsOnly" data-target="> .SpoilerTarget"><span>Spoiler: <span class="SpoilerTitle">MediaInfo</span></span></button>
<div class="SpoilerTarget bbCodeSpoilerText">General<br>
Unique ID : 216410024617106610662668769525486463846 (0xA2CF0DFEB1920B6B9086B7103B122B66)<br>
Complete name : K.C. Undercover S02E01 1080p Amazon WEB-DL DD+ 5.1 x264-TrollHD.mkv<br>
Format : Matroska<br>
Format version : Version 4<br>
File size : 4.45 GiB<br>
Duration : 44 min 9 s<br>
Overall bit rate mode : Variable<br>
Overall bit rate : 14.4 Mb/s<br>
Frame rate : 23.976 FPS<br>
Encoded date : 2016-08-25 22:29:38 UTC<br>
Writing application : mkvmerge v8.3.0 ('Over the Horizon') 64bit<br>
Writing library : libebml v1.3.1 + libmatroska v1.4.2<br>
<br>
Video<br>
ID : 2<br>
Format : AVC<br>
Format/Info : Advanced Video Codec<br>
Format profile : High@L4<br>
Format settings : CABAC / 4 Ref Frames<br>
Format settings, CABAC : Yes<br>
Format settings, Reference frames : 4 frames<br>
Codec ID : V_MPEG4/ISO/AVC<br>
Duration : 44 min 9 s<br>
Bit rate mode : Variable<br>
Bit rate : 13.8 Mb/s<br>
Maximum bit rate : 15.0 Mb/s<br>
Width : 1 920 pixels<br>
Height : 1 080 pixels<br>
Display aspect ratio : 16:9<br>
Frame rate mode : Constant<br>
Frame rate : 23.976 (24000/1001) FPS<br>
Color space : YUV<br>
Chroma subsampling : 4:2:0<br>
Bit depth : 8 bits<br>
Scan type : Progressive<br>
Bits/(Pixel*Frame) : 0.277<br>
Stream size : 4.25 GiB (96%)<br>
Writing library : x264 core 148 r2623 d5b2374<br>
Encoding settings : cabac=1 / ref=4 / deblock=1:-1:-1 / analyse=0x3:0x133 / me=umh / subme=9 / psy=1 / psy_rd=1.00:0.15 / mixed_ref=1 / me_range=24 / chroma_me=1 / trellis=2 / 8x8dct=1 / cqm=0 / deadzone=21,11 / fast_pskip=1 / chroma_qp_offset=-3 / threads=34 / lookahead_threads=5 / sliced_threads=0 / nr=150 / decimate=1 / interlaced=0 / bluray_compat=0 / constrained_intra=0 / bframes=8 / b_pyramid=2 / b_adapt=2 / b_bias=0 / direct=3 / weightb=1 / open_gop=0 / weightp=2 / keyint=120 / keyint_min=61 / scenecut=0 / intra_refresh=0 / rc_lookahead=120 / rc=crf / mbtree=1 / crf=18.0 / qcomp=0.60 / qpmin=0 / qpmax=69 / qpstep=4 / vbv_maxrate=15000 / vbv_bufsize=31250 / crf_max=0.0 / nal_hrd=vbr / filler=0 / ip_ratio=1.40 / aq=3:1.00<br>
Default : Yes<br>
Forced : No<br>
Color range : Limited<br>
Color primaries : BT.709<br>
Transfer characteristics : BT.709<br>
Matrix coefficients : BT.709<br>
<br>
Audio<br>
ID : 1<br>
Format : E-AC-3<br>
Format/Info : Enhanced AC-3<br>
Commercial name : Dolby Digital Plus<br>
Codec ID : A_EAC3<br>
Duration : 44 min 8 s<br>
Bit rate mode : Constant<br>
Bit rate : 640 kb/s<br>
Channel(s) : 6 channels<br>
Channel layout : L R C LFE Ls Rs<br>
Sampling rate : 48.0 kHz<br>
Frame rate : 31.250 FPS (1536 SPF)<br>
Compression mode : Lossy<br>
Stream size : 202 MiB (4%)<br>
Language : English<br>
Service kind : Complete Main<br>
Default : Yes<br>
Forced : No<br>
<br>
Text<br>
ID : 3<br>
Format : UTF-8<br>
Codec ID : S_TEXT/UTF8<br>
Codec ID/Info : UTF-8 Plain Text<br>
Duration : 44 min 6 s<br>
Bit rate : 90 b/s<br>
Frame rate : 0.350 FPS<br>
Count of elements : 926<br>
Stream size : 29.1 KiB (0%)<br>
Default : Yes<br>
Forced : No</div>
</div><br>
Screenshots:<br>
<img src="https://i.imgur.com/z12ma5M.jpg" class="bbCodeImage LbImage" alt="[​IMG]" data-url="https://i.imgur.com/z12ma5M.jpg" style=""> <br>
<br>
<div class="bbCodeBlock bbCodeVfcHH HiddenContent">
<div class="attribution type">Hidden Content:</div>
<blockquote>You must either reply or click 'Like' to see the hidden information contained here.</blockquote>
</div>
<div class="messageTextEndMarker">&nbsp;</div>
</blockquote>
</article>]]></description>
                <author><![CDATA[LazyRips]]></author>
                </item>

                </channel></rss>